<svg width="235" height="146" viewBox="0 0 235 146" fill="none" xmlns="http://www.w3.org/2000/svg">
<path fill-rule="evenodd" clip-rule="evenodd" d="M16.7873 39.2715H4.2708C3.0952 39.2715 2.02853 39.7524 1.2537 40.5252C0.478874 41.3021 0 42.3687 0 43.5423C0 45.8914 1.92166 47.8151 4.2708 47.8151H16.7873C17.9629 47.8151 19.0316 47.3342 19.8044 46.5594C20.5792 45.7846 21.0581 44.7158 21.0581 43.5423C21.0581 41.1931 19.1364 39.2715 16.7873 39.2715ZM20.7539 81.0814H15.3342C14.1586 81.0814 13.0899 81.5623 12.3171 82.3351C11.5443 83.1079 11.0613 84.1786 11.0613 85.3542C11.0613 87.7034 12.983 89.625 15.3342 89.625H20.7539C21.9295 89.625 22.9982 89.1441 23.771 88.3713C24.5438 87.5986 25.0268 86.5278 25.0268 85.3542C25.0268 83.003 23.103 81.0814 20.7539 81.0814Z" fill="url(#paint0_linear_206_32537)"/>
<path fill-rule="evenodd" clip-rule="evenodd" d="M187.362 58.7862C183.126 56.1925 179.616 54.7764 176.732 54.1536C176.5 54.1043 176.264 54.2338 176.186 54.4599C176.107 54.6819 176.208 54.9326 176.42 55.0374C178.788 56.2212 181.441 57.7894 184.452 59.8816C191.027 64.4443 193.641 69.8146 194.901 74.8705C194.925 74.9671 195.014 75.0288 195.114 75.0165C195.211 75.0021 195.285 74.9178 195.283 74.8192C195.199 69.4159 194.422 63.1063 187.362 58.7882V58.7862ZM187.362 58.7862C183.126 56.1925 179.616 54.7764 176.732 54.1536C176.5 54.1043 176.264 54.2338 176.186 54.4599C176.107 54.6819 176.208 54.9326 176.42 55.0374C178.788 56.2212 181.441 57.7894 184.452 59.8816C191.027 64.4443 193.641 69.8146 194.901 74.8705C194.925 74.9671 195.014 75.0288 195.114 75.0165C195.211 75.0021 195.285 74.9178 195.283 74.8192C195.199 69.4159 194.422 63.1063 187.362 58.7882V58.7862ZM228.039 106.386L82.3286 105.549L218.458 102.921C217.009 91.1974 213.248 80.1916 207.649 70.3675C194.66 47.5727 172.19 32.1666 146.845 27.6636C146.691 45.5011 127.497 61.9348 127.497 61.9348C127.497 61.9348 125.415 60.1406 122.618 57.1029C121.689 56.1 120.682 54.9552 119.646 53.683C114.586 47.5173 108.835 38.5564 108.21 29.131C100.213 31.2274 92.5268 34.4726 85.4156 38.8277C85.1751 38.9757 84.9367 39.1216 84.7024 39.2716H30.0596C28.886 39.2716 27.8173 39.7525 27.0425 40.5253C26.1978 41.3721 25.7045 42.56 25.7991 43.8589C25.9635 46.1074 27.8933 47.8173 30.1438 47.8173H73.2321C68.9366 51.5969 65.0111 55.7876 61.5213 60.3297H16.9368C15.7612 60.3297 14.6925 60.8106 13.9197 61.5854C13.1449 62.3623 12.666 63.429 12.666 64.6025C12.666 66.9517 14.5877 68.8754 16.9368 68.8754H55.7193C53.401 72.7598 51.3766 76.8395 49.6707 81.0815H32.197C31.0214 81.0815 29.9527 81.5624 29.1779 82.3352C28.403 83.11 27.9242 84.1788 27.9242 85.3544C27.9242 87.7035 29.8479 89.6252 32.197 89.6252H46.74C45.3609 94.455 44.3805 99.4513 43.8441 104.581H40.9133C37.3886 104.581 34.1824 106.024 31.86 108.346C29.5375 110.669 28.0927 113.873 28.0927 117.4C28.0927 124.451 33.8618 130.218 40.9133 130.218H67.8062C68.2851 138.593 75.2545 145.232 83.7611 145.172C92.3521 145.113 99.3954 138.121 99.5167 129.53C99.64 120.661 92.4898 113.433 83.6481 113.433C82.7582 113.433 81.8867 113.507 81.0379 113.647C82.5403 113.211 84.129 112.975 85.7732 112.975C95.1287 112.975 102.711 120.559 102.711 129.912C102.711 130.017 102.711 130.118 102.711 130.218H158.753C159.232 138.596 166.201 145.234 174.71 145.172C183.301 145.111 190.344 138.121 190.463 129.53C190.587 120.659 183.437 113.433 174.593 113.433C173.705 113.433 172.833 113.507 171.983 113.647C173.487 113.211 175.076 112.975 176.72 112.975C186.075 112.975 193.657 120.559 193.657 129.912C193.657 130.017 193.657 130.118 193.657 130.218H221.586C225.109 130.218 228.313 128.776 230.637 126.453C233.005 124.088 234.456 120.805 234.4 117.202C234.331 112.582 231.778 108.583 228.042 106.386H228.039ZM170.355 54.5585C173.002 52.0573 178.997 51.2455 189.354 57.588C199.714 63.914 196.019 74.7184 197.334 80.0888C197.809 82.0495 203.083 87.4939 209.855 93.9186C209.818 93.9556 209.775 94.009 209.738 94.0439C209.46 94.3214 209.174 94.605 208.883 94.8825C208.393 95.3449 207.886 95.793 207.362 96.1999C201.348 89.0887 196.237 83.5334 194.307 82.9477C189.021 81.3261 178.025 84.3966 172.293 73.6991C166.561 62.9912 167.716 57.0515 170.357 54.5585H170.355ZM83.6501 121.502C87.9559 121.502 91.4478 124.994 91.4478 129.302C91.4478 133.61 87.9559 137.099 83.6501 137.099C79.3444 137.099 75.8505 133.61 75.8505 129.302C75.8505 124.994 79.3423 121.502 83.6501 121.502ZM174.595 121.502C178.903 121.502 182.394 124.994 182.394 129.302C182.394 133.61 178.903 137.099 174.595 137.099C170.287 137.099 166.795 133.61 166.795 129.302C166.795 124.994 170.287 121.502 174.595 121.502ZM176.42 55.0354C178.788 56.2192 181.441 57.7873 184.452 59.8796C191.027 64.4422 193.641 69.8126 194.901 74.8685C194.925 74.9651 195.014 75.0267 195.114 75.0144C195.211 75 195.285 74.9158 195.283 74.8171C195.199 69.4139 194.422 63.1043 187.362 58.7862C183.126 56.1925 179.616 54.7764 176.732 54.1536C176.5 54.1043 176.264 54.2338 176.186 54.4599C176.107 54.6819 176.208 54.9326 176.42 55.0374V55.0354Z" fill="url(#paint1_linear_206_32537)"/>
<path d="M143.66 27.9104C143.66 42.8336 127.549 56.6304 127.549 56.6304C127.549 56.6304 125.814 55.1383 123.483 52.6083C122.711 51.7718 121.872 50.8182 121.009 49.7598C116.545 44.3216 111.436 36.2671 111.436 27.9104C111.436 19.5538 117.704 12.7797 125.777 11.9021L125.95 19.4983C125.985 20.9904 125.467 22.4352 124.505 23.5615L121.484 27.1068C120.627 28.1098 120.197 29.4025 120.273 30.7014C120.273 30.7693 120.281 30.8248 120.287 30.8885L121.636 42.106C121.677 42.5068 122.01 42.811 122.402 42.811C122.63 42.811 122.859 42.7144 123.017 42.5561C123.183 42.3917 123.274 42.1697 123.274 41.9416L123.266 32.0517L123.274 31.9613C123.274 31.5194 123.633 31.1659 124.061 31.1741C124.503 31.1741 124.856 31.5256 124.856 31.9695V44.9299C124.856 45.2053 124.961 45.4622 125.152 45.6554C125.339 45.8424 125.602 45.9534 125.872 45.9452C126.466 45.9514 126.949 45.4684 126.949 44.8662V31.9675C126.949 31.5256 127.302 31.1721 127.744 31.1721C128.186 31.1721 128.533 31.5174 128.533 31.9592V44.9669C128.533 45.4992 128.969 45.9411 129.516 45.9493C129.785 45.9493 130.054 45.8383 130.249 45.639C130.442 45.4458 130.553 45.1827 130.553 44.9135V31.9613C130.553 31.5194 130.905 31.1659 131.349 31.1659C131.715 31.1659 132.033 31.429 132.109 31.7804C132.136 31.8298 132.136 31.8914 132.144 31.9592V41.9806C132.136 42.4369 132.51 42.811 132.966 42.8027C133.118 42.8027 133.256 42.7678 133.381 42.6979L133.756 42.3239L133.764 42.3177C133.811 42.2149 133.846 42.1039 133.86 41.9786L135.202 30.8782C135.229 30.6233 135.235 30.3664 135.209 30.1178C135.159 29.0038 134.738 27.9536 134.012 27.1048L130.991 23.5595C130.031 22.427 129.52 20.9801 129.555 19.5024L129.719 11.9473C137.584 12.9975 143.66 19.7429 143.66 27.9063V27.9104Z" fill="url(#paint2_linear_206_32537)"/>
<g style="mix-blend-mode:multiply">
<path d="M133.381 42.7019L123.483 52.6061C122.711 51.7696 121.872 50.816 121.009 49.7576C116.545 44.3194 111.436 36.2649 111.436 27.9082C111.436 19.5516 117.704 12.7775 125.777 11.8999L125.95 19.4961C125.985 20.9882 125.467 22.433 124.505 23.5593L121.484 27.1046C120.627 28.1076 120.197 29.4003 120.273 30.6992C120.273 30.7671 120.281 30.8226 120.287 30.8863L121.636 42.1038C121.677 42.5046 122.01 42.8088 122.402 42.8088C122.63 42.8088 122.859 42.7122 123.017 42.5539C123.183 42.3895 123.274 42.1675 123.274 41.9394L123.266 32.0495L123.274 31.9591C123.274 31.5172 123.633 31.1637 124.061 31.172C124.503 31.172 124.856 31.5234 124.856 31.9673V44.9277C124.856 45.2031 124.961 45.46 125.152 45.6532C125.339 45.8403 125.602 45.9512 125.872 45.943C126.466 45.9492 126.949 45.4662 126.949 44.864V31.9653C126.949 31.5234 127.302 31.1699 127.744 31.1699C128.186 31.1699 128.533 31.5152 128.533 31.9571V44.9647C128.533 45.497 128.969 45.9389 129.516 45.9471C129.785 45.9471 130.054 45.8362 130.249 45.6368C130.442 45.4436 130.553 45.1805 130.553 44.9113V31.9591C130.553 31.5172 130.905 31.1637 131.349 31.1637C131.715 31.1637 132.033 31.4268 132.109 31.7782C132.136 31.8276 132.136 31.8892 132.144 31.9571V41.9784C132.136 42.4347 132.51 42.8088 132.966 42.8005C133.118 42.8005 133.256 42.7656 133.381 42.6957V42.7019Z" fill="#F8A6A8"/>
</g>
<path d="M133.755 42.3279C133.673 42.4861 133.541 42.6259 133.381 42.7019L133.755 42.3279Z" fill="white"/>
<path fill-rule="evenodd" clip-rule="evenodd" d="M127.836 0C130.002 0 131.759 1.75724 131.759 3.92347C131.759 6.0897 130.002 7.84693 127.836 7.84693C125.669 7.84693 123.912 6.0897 123.912 3.92347C123.912 1.75929 125.669 0 127.836 0Z" fill="url(#paint3_linear_206_32537)"/>
<path d="M195.285 74.8191C195.285 74.9198 195.213 75.002 195.114 75.0164C195.016 75.0287 194.925 74.9671 194.901 74.8705C193.641 69.8146 191.029 64.4442 184.452 59.8815C181.441 57.7914 178.785 56.2232 176.42 55.0394C176.208 54.9325 176.107 54.6838 176.188 54.4598C176.266 54.2358 176.5 54.1042 176.732 54.1556C179.614 54.7784 183.128 56.1944 187.364 58.7902C194.424 63.1083 195.201 69.4179 195.285 74.8211V74.8191Z" fill="white"/>
<g style="mix-blend-mode:multiply">
<path d="M195.285 74.8191C195.285 74.9198 195.213 75.002 195.114 75.0164C195.016 75.0287 194.925 74.9671 194.901 74.8705C193.641 69.8146 191.029 64.4442 184.452 59.8815C181.441 57.7914 178.785 56.2232 176.42 55.0394C176.208 54.9325 176.107 54.6838 176.188 54.4598C176.266 54.2358 176.5 54.1042 176.732 54.1556C179.614 54.7784 183.128 56.1944 187.364 58.7902C194.424 63.1083 195.201 69.4179 195.285 74.8211V74.8191Z" fill="url(#paint4_linear_206_32537)"/>
</g>
<defs>
<linearGradient id="paint0_linear_206_32537" x1="-17.5909" y1="56.1451" x2="101.133" y2="85.4426" gradientUnits="userSpaceOnUse">
<stop stop-color="#F8981D"/>
<stop offset="1" stop-color="#EF3B62"/>
</linearGradient>
<linearGradient id="paint1_linear_206_32537" x1="12.666" y1="86.419" x2="234.4" y2="86.419" gradientUnits="userSpaceOnUse">
<stop stop-color="#F8981D"/>
<stop offset="1" stop-color="#EF3B62"/>
</linearGradient>
<linearGradient id="paint2_linear_206_32537" x1="111.436" y1="34.2652" x2="143.66" y2="34.2652" gradientUnits="userSpaceOnUse">
<stop stop-color="#F8981D"/>
<stop offset="1" stop-color="#EF3B62"/>
</linearGradient>
<linearGradient id="paint3_linear_206_32537" x1="123.914" y1="3.92347" x2="131.759" y2="3.92347" gradientUnits="userSpaceOnUse">
<stop stop-color="#F8981D"/>
<stop offset="1" stop-color="#EF3B62"/>
</linearGradient>
<linearGradient id="paint4_linear_206_32537" x1="176.159" y1="64.5798" x2="195.285" y2="64.5798" gradientUnits="userSpaceOnUse">
<stop stop-color="#F8981D"/>
<stop offset="1" stop-color="#EF3B62"/>
</linearGradient>
</defs>
</svg>
