<svg width="26" height="26" viewBox="0 0 26 26" fill="none" xmlns="http://www.w3.org/2000/svg">
<g clip-path="url(#clip0_206_18601)">
<path d="M21.9604 18.3308C21.6183 19.1211 21.2134 19.8486 20.7442 20.5175C20.1047 21.4293 19.5811 22.0604 19.1775 22.4109C18.5519 22.9862 17.8817 23.2809 17.164 23.2976C16.6487 23.2976 16.0273 23.151 15.304 22.8536C14.5783 22.5576 13.9115 22.4109 13.3017 22.4109C12.6621 22.4109 11.9762 22.5576 11.2426 22.8536C10.5078 23.151 9.91593 23.306 9.46337 23.3214C8.77511 23.3507 8.08908 23.0477 7.40431 22.4109C6.96725 22.0297 6.42058 21.3762 5.76569 20.4505C5.06304 19.4618 4.48537 18.3154 4.03282 17.0084C3.54814 15.5967 3.30518 14.2297 3.30518 12.9062C3.30518 11.3902 3.63276 10.0827 4.28891 8.98694C4.80458 8.10681 5.49061 7.41255 6.34922 6.90288C7.20784 6.39321 8.13558 6.13348 9.13467 6.11687C9.68134 6.11687 10.3982 6.28597 11.2891 6.6183C12.1775 6.95175 12.7479 7.12085 12.998 7.12085C13.1849 7.12085 13.8186 6.92312 14.8928 6.52893C15.9087 6.16337 16.766 6.012 17.4684 6.07163C19.3716 6.22522 20.8015 6.97549 21.7524 8.32716C20.0502 9.35851 19.2082 10.803 19.225 12.6561C19.2404 14.0995 19.764 15.3007 20.7931 16.2544C21.2595 16.697 21.7803 17.0392 22.3598 17.2821C22.2341 17.6466 22.1015 17.9957 21.9604 18.3308ZM17.5954 1.15422C17.5954 2.28556 17.1821 3.34189 16.3583 4.31962C15.3641 5.48195 14.1615 6.15359 12.8575 6.04761C12.8409 5.91188 12.8312 5.76904 12.8312 5.61893C12.8312 4.53284 13.304 3.37052 14.1437 2.42016C14.5628 1.93897 15.096 1.53888 15.7425 1.21971C16.3876 0.905307 16.9978 0.731435 17.5717 0.70166C17.5885 0.852903 17.5954 1.00415 17.5954 1.15421V1.15422Z" fill="black"/>
</g>
<defs>
<clipPath id="clip0_206_18601">
<rect width="24.6782" height="24.6782" fill="white" transform="translate(0.528809 0.701172)"/>
</clipPath>
</defs>
</svg>
