<svg width="25" height="26" viewBox="0 0 25 26" fill="none" xmlns="http://www.w3.org/2000/svg">
<g clip-path="url(#clip0_206_18593)">
<path d="M24.5412 13.3246C24.5412 12.4859 24.4731 11.6426 24.3281 10.8174H12.6895V15.5689H19.3543C19.0778 17.1014 18.1891 18.457 16.8879 19.3185V22.4016H20.8641C23.1991 20.2525 24.5412 17.0787 24.5412 13.3246Z" fill="#4285F4"/>
<path d="M12.6896 25.3804C16.0175 25.3804 18.824 24.2877 20.8688 22.4016L16.8925 19.3185C15.7863 20.0712 14.3581 20.4974 12.6941 20.4974C9.47504 20.4974 6.74562 18.3256 5.76629 15.4058H1.66309V18.584C3.75776 22.7507 8.02418 25.3804 12.6896 25.3804Z" fill="#34A853"/>
<path d="M5.76134 15.4056C5.24447 13.8731 5.24447 12.2137 5.76134 10.6812V7.50293H1.66267C-0.0874261 10.9895 -0.0874261 15.0973 1.66267 18.5838L5.76134 15.4056Z" fill="#FBBC04"/>
<path d="M12.6896 5.58504C14.4488 5.55784 16.149 6.21979 17.423 7.43488L20.9459 3.91202C18.7152 1.81735 15.7545 0.665732 12.6896 0.702003C8.02418 0.702003 3.75776 3.33168 1.66309 7.50289L5.76175 10.6812C6.73655 7.75679 9.4705 5.58504 12.6896 5.58504Z" fill="#EA4335"/>
</g>
<defs>
<clipPath id="clip0_206_18593">
<rect width="24.6782" height="24.6782" fill="white" transform="translate(0.103516 0.701172)"/>
</clipPath>
</defs>
</svg>
